<svg width="20" height="20" viewBox="0 0 20 20" fill="none" xmlns="http://www.w3.org/2000/svg">
<path d="M17.6676 2.9115H2.33242C1.04406 2.9115 0 3.95556 0 5.24357V14.7563C0 16.0444 1.04406 17.0885 2.33242 17.0885H17.6676C18.9556 17.0885 20 16.0444 20 14.7563V5.24357C20 3.95556 18.9556 2.9115 17.6676 2.9115ZM18.8863 15.3847L18.4423 15.9105L12.2249 10.8362L11.262 11.7524C10.5484 12.4077 9.45164 12.4077 8.73801 11.7524L7.77512 10.8362L1.55766 15.9105L1.11367 15.3847L6.95117 10.052L1.07543 4.52998L1.42281 4.0697L10 10.5687L18.5771 4.0697L18.9243 4.52998L13.0489 10.052L18.8863 15.3847Z" fill="#262626"/>
</svg>
