<svg width="31" height="30" viewBox="0 0 31 30" fill="none" xmlns="http://www.w3.org/2000/svg">
<path fill-rule="evenodd" clip-rule="evenodd" d="M5 15C5 14.3787 5.50368 13.875 6.125 13.875L22.0819 13.875L15.8453 7.93593C15.3974 7.50529 15.3834 6.79312 15.8141 6.34525C16.2447 5.89738 16.9569 5.88342 17.4047 6.31406L25.6547 14.1891C25.8753 14.4012 26 14.694 26 15C26 15.306 25.8753 15.5988 25.6547 15.8109L17.4047 23.6859C16.9569 24.1166 16.2447 24.1026 15.8141 23.6547C15.3834 23.2069 15.3974 22.4947 15.8453 22.0641L22.0819 16.125L6.125 16.125C5.50368 16.125 5 15.6213 5 15Z" fill="#262626"/>
</svg>
