<svg width="224" height="224" viewBox="0 0 224 224" fill="none" xmlns="http://www.w3.org/2000/svg">
<g opacity="0.5">
<rect x="56" y="168" width="56" height="56" transform="rotate(90 56 168)" fill="white"/>
<rect x="56" y="168" width="56" height="28" transform="rotate(90 56 168)" fill="white"/>
<path d="M-1.22392e-06 196C-5.47967e-07 211.464 12.536 224 28 224L28 168C12.536 168 -1.89987e-06 180.536 -1.22392e-06 196Z" fill="white"/>
<rect width="56" height="56" transform="matrix(4.37114e-08 1 1 -4.37114e-08 0 112)" fill="#FF9E66"/>
<rect width="56" height="56" transform="matrix(-4.37114e-08 -1 -1 4.37114e-08 56 112)" fill="#FFBE99"/>
<rect y="56" width="56" height="56" transform="rotate(-90 0 56)" fill="#FF9E66"/>
<path d="M1.00772e-05 56C7.35403 56 14.636 54.5515 21.4303 51.7373C28.2245 48.923 34.3979 44.7981 39.598 39.598C44.7981 34.3979 48.923 28.2245 51.7373 21.4303C54.5515 14.636 56 7.35402 56 0L7.62939e-06 6.7203e-06L1.00772e-05 56Z" fill="#FFBE99"/>
<rect x="112" y="168" width="56" height="56" transform="rotate(90 112 168)" fill="white"/>
<rect width="56" height="56" transform="matrix(4.37114e-08 1 1 -4.37114e-08 56 112)" fill="white"/>
<path d="M56 168C63.354 168 70.636 166.552 77.4303 163.737C84.2245 160.923 90.3979 156.798 95.598 151.598C100.798 146.398 104.923 140.225 107.737 133.43C110.552 126.636 112 119.354 112 112L56 112L56 168Z" fill="#FF9E66"/>
<rect width="56" height="56" transform="matrix(-4.37114e-08 -1 -1 4.37114e-08 112 112)" fill="#FF9E66"/>
<path d="M56 56C63.354 56 70.636 57.4485 77.4303 60.2627C84.2245 63.077 90.3979 67.2019 95.598 72.402C100.798 77.6021 104.923 83.7755 107.737 90.5697C110.552 97.364 112 104.646 112 112L56 112L56 56Z" fill="#FFBE99"/>
<rect x="56" y="56" width="56" height="56" transform="rotate(-90 56 56)" fill="#FF9E66"/>
<rect x="84" y="56" width="56" height="28" transform="rotate(-90 84 56)" fill="white"/>
<path d="M56 28C56 12.536 68.536 -5.47967e-07 84 -1.22392e-06L84 56C68.536 56 56 43.464 56 28Z" fill="white"/>
<rect x="168" y="168" width="56" height="56" transform="rotate(90 168 168)" fill="white"/>
<rect x="168" y="168" width="56" height="28" transform="rotate(90 168 168)" fill="#FFBE99"/>
<path d="M112 196C112 211.464 124.536 224 140 224L140 168C124.536 168 112 180.536 112 196Z" fill="#FFBE99"/>
<rect width="56" height="56" transform="matrix(4.37114e-08 1 1 -4.37114e-08 112 112)" fill="white"/>
<path d="M168 168C160.646 168 153.364 166.552 146.57 163.737C139.775 160.923 133.602 156.798 128.402 151.598C123.202 146.398 119.077 140.225 116.263 133.43C113.448 126.636 112 119.354 112 112L168 112L168 168Z" fill="#FF9E66"/>
<rect width="56" height="56" transform="matrix(-4.37114e-08 -1 -1 4.37114e-08 168 112)" fill="#FF9E66"/>
<rect x="112" y="56" width="56" height="56" transform="rotate(-90 112 56)" fill="white"/>
<rect x="224" y="168" width="56" height="56" transform="rotate(90 224 168)" fill="url(#paint0_linear_73_9267)"/>
<rect width="56" height="56" transform="matrix(4.37114e-08 1 1 -4.37114e-08 168 112)" fill="url(#paint1_linear_73_9267)"/>
<rect width="56" height="56" transform="matrix(-4.37114e-08 -1 -1 4.37114e-08 224 112)" fill="url(#paint2_linear_73_9267)"/>
<rect width="56" height="28" transform="matrix(-4.37114e-08 -1 -1 4.37114e-08 224 112)" fill="url(#paint3_linear_73_9267)"/>
<path d="M168 84C168 99.464 180.536 112 196 112L196 56C180.536 56 168 68.536 168 84Z" fill="#FFBE99"/>
<rect x="168" y="56" width="56" height="56" transform="rotate(-90 168 56)" fill="url(#paint4_linear_73_9267)"/>
<rect x="168" y="56" width="56" height="28" transform="rotate(-90 168 56)" fill="white"/>
<path d="M215.5 32.25C215.5 19.1332 204.867 8.5 191.75 8.5L191.75 56C204.867 56 215.5 45.3668 215.5 32.25Z" fill="url(#paint5_linear_73_9267)"/>
</g>
<defs>
<linearGradient id="paint0_linear_73_9267" x1="252" y1="168" x2="252" y2="224" gradientUnits="userSpaceOnUse">
<stop stop-color="#FFBE99" stop-opacity="0"/>
<stop offset="1" stop-color="#FFBE99"/>
</linearGradient>
<linearGradient id="paint1_linear_73_9267" x1="28" y1="0" x2="28" y2="56" gradientUnits="userSpaceOnUse">
<stop stop-color="#FF9E66"/>
<stop offset="1" stop-color="#FF9E66" stop-opacity="0"/>
</linearGradient>
<linearGradient id="paint2_linear_73_9267" x1="28" y1="0" x2="28" y2="56" gradientUnits="userSpaceOnUse">
<stop stop-color="#FF9E66" stop-opacity="0"/>
<stop offset="0.766167" stop-color="#FF9E66"/>
</linearGradient>
<linearGradient id="paint3_linear_73_9267" x1="28" y1="0" x2="28" y2="28" gradientUnits="userSpaceOnUse">
<stop stop-color="#FFBE99" stop-opacity="0"/>
<stop offset="1" stop-color="#FFBE99"/>
</linearGradient>
<linearGradient id="paint4_linear_73_9267" x1="196" y1="56" x2="196" y2="112" gradientUnits="userSpaceOnUse">
<stop stop-color="#FFBE99"/>
<stop offset="0.159375" stop-color="#FFBE99" stop-opacity="0"/>
</linearGradient>
<linearGradient id="paint5_linear_73_9267" x1="215.5" y1="32.25" x2="191.75" y2="32.25" gradientUnits="userSpaceOnUse">
<stop stop-color="white"/>
<stop offset="1" stop-color="white" stop-opacity="0"/>
</linearGradient>
</defs>
</svg>
