<svg width="34" height="34" viewBox="0 0 34 34" fill="none" xmlns="http://www.w3.org/2000/svg">
<path fill-rule="evenodd" clip-rule="evenodd" d="M29.1802 2.125C28.6484 2.125 28.1285 2.28241 27.6861 2.57739L20.4908 7.37422C18.5565 8.66379 16.8068 10.197 15.2819 11.9303C18.2782 13.303 20.6959 15.7207 22.0685 18.717C23.8018 17.1921 25.3351 15.4424 26.6246 13.508L31.4214 6.31279C31.7164 5.87032 31.8738 5.35042 31.8738 4.81863C31.8738 3.33098 30.6679 2.125 29.1802 2.125ZM17.4232 21.9936C18.4806 21.4062 19.4935 20.7489 20.4557 20.0276C19.2635 17.0851 16.9137 14.7353 13.9713 13.5431C13.2499 14.5054 12.5927 15.5183 12.0052 16.5757L11.6107 17.2859C14.0707 17.9895 16.0093 19.9282 16.7129 22.3882L17.4232 21.9936ZM9.56134 19.125C6.62729 19.125 4.24884 21.5035 4.24884 24.4375C4.24884 25.6111 3.29745 26.5625 2.12384 26.5625C2.07572 26.5625 2.02783 26.5609 1.98025 26.5577C1.58903 26.5319 1.21537 26.7236 1.00816 27.0564C0.800953 27.3893 0.793886 27.8092 0.989775 28.1488C2.27299 30.3736 4.67867 31.875 7.43634 31.875C11.544 31.875 14.8738 28.5451 14.8738 24.4375C14.8738 21.5035 12.4954 19.125 9.56134 19.125Z" fill="#262626"/>
</svg>
